# xmcd CD database file
#
# Track frame offsets:
#	150
#	31942
#	59242
#	99310
#	122730
#	153800
#	160662
#	182415
#	207320
#	246850
#	265490
#
# Disc length: 4035 seconds
#
# Revision: 0
# Processed by: cddbd v1.5.2PL0 Copyright (c) Steve Scherf et al.
# Submitted via: CDex 1.70beta2
#
DISCID=900fc10b
DTITLE=Margitza, Rick - Hope
DYEAR=1990
DGENRE=Jazz
TTITLE0=the journey
TTITLE1=song of hope
TTITLE2=stepping stone
TTITLE3=the princess
TTITLE4=walls
TTITLE5=mother's day
TTITLE6=recess
TTITLE7=heritage
TTITLE8=the old country
TTITLE9=we the people
TTITLE10=cornfed
EXTD=YEAR: 1990
EXTT0=
EXTT1=
EXTT2=
EXTT3=
EXTT4=
EXTT5=
EXTT6=
EXTT7=
EXTT8=
EXTT9=
EXTT10=
PLAYORDER=
